<svg xmlns="http://www.w3.org/2000/svg" width="56" height="22" viewBox="0 0 56 22" fill="none">
<path d="M33.4203 5.06944C34.6893 5.24948 35.635 5.98592 35.532 6.71584C35.4289 7.44468 34.5808 7.92732 33.3107 7.74728C33.1068 6.82105 32.967 5.9024 33.4203 5.06944Z" stroke="#B0B0B0" stroke-width="0.8" stroke-linecap="round" stroke-linejoin="round"/>
<path d="M10.8153 20.6181C13.1951 20.6181 15.1243 18.6889 15.1243 16.3091C15.1243 13.9293 13.1951 12 10.8153 12C8.43544 12 6.50621 13.9293 6.50621 16.3091C6.50621 18.6889 8.43544 20.6181 10.8153 20.6181Z" stroke="#B0B0B0" stroke-width="0.8" stroke-linecap="round" stroke-linejoin="round"/>
<path d="M10.8135 18.8158C12.199 18.8158 13.3222 17.6926 13.3222 16.3071C13.3222 14.9216 12.199 13.7985 10.8135 13.7985C9.42806 13.7985 8.30492 14.9216 8.30492 16.3071C8.30492 17.6926 9.42806 18.8158 10.8135 18.8158Z" stroke="#B0B0B0" stroke-width="0.8" stroke-linecap="round" stroke-linejoin="round"/>
<path d="M11.0173 15.6489C11.385 15.7606 11.5932 16.15 11.4815 16.5177C11.3698 16.8854 10.9804 17.0936 10.6127 16.9819C10.245 16.8702 10.0368 16.4808 10.1485 16.1131C10.2602 15.7455 10.6496 15.5372 11.0173 15.6489Z" stroke="#B0B0B0" stroke-width="0.8" stroke-linecap="round" stroke-linejoin="round"/>
<path d="M11.2133 15.744L11.8077 14.8958L12.6591 14.7451" stroke="#B0B0B0" stroke-width="0.8" stroke-linecap="round" stroke-linejoin="round"/>
<path d="M11.8088 14.8963L11.6592 14.0449" stroke="#B0B0B0" stroke-width="0.8" stroke-linecap="round" stroke-linejoin="round"/>
<path d="M10.3956 15.7582L9.77304 14.9307L9.89347 14.075" stroke="#B0B0B0" stroke-width="0.8" stroke-linecap="round" stroke-linejoin="round"/>
<path d="M9.77203 14.9305L8.91522 14.8101" stroke="#B0B0B0" stroke-width="0.8" stroke-linecap="round" stroke-linejoin="round"/>
<path d="M10.1559 16.541L9.17651 16.8783L8.39998 16.4987" stroke="#B0B0B0" stroke-width="0.8" stroke-linecap="round" stroke-linejoin="round"/>
<path d="M9.17624 16.8787L8.79774 17.6553" stroke="#B0B0B0" stroke-width="0.8" stroke-linecap="round" stroke-linejoin="round"/>
<path d="M10.8265 17.0107L10.8438 18.0464L10.244 18.669" stroke="#B0B0B0" stroke-width="0.8" stroke-linecap="round" stroke-linejoin="round"/>
<path d="M10.844 18.0466L11.4665 18.6475" stroke="#B0B0B0" stroke-width="0.8" stroke-linecap="round" stroke-linejoin="round"/>
<path d="M11.481 16.5189L12.4713 16.8215L12.878 17.5851" stroke="#B0B0B0" stroke-width="0.8" stroke-linecap="round" stroke-linejoin="round"/>
<path d="M12.4706 16.8213L13.2341 16.4156" stroke="#B0B0B0" stroke-width="0.8" stroke-linecap="round" stroke-linejoin="round"/>
<path d="M49.9317 16.3321C49.9317 13.9523 48.0025 12.023 45.6227 12.023C43.2428 12.023 41.3136 13.9523 41.3136 16.3321C41.3136 18.7119 43.2428 20.6411 45.6227 20.6411C48.0025 20.6411 49.9317 18.7119 49.9317 16.3321Z" stroke="#B0B0B0" stroke-width="0.8" stroke-linecap="round" stroke-linejoin="round"/>
<path d="M45.5772 18.8158C46.9627 18.8158 48.0859 17.6926 48.0859 16.3071C48.0859 14.9216 46.9627 13.7985 45.5772 13.7985C44.1917 13.7985 43.0686 14.9216 43.0686 16.3071C43.0686 17.6926 44.1917 18.8158 45.5772 18.8158Z" stroke="#B0B0B0" stroke-width="0.8" stroke-linecap="round" stroke-linejoin="round"/>
<path d="M45.7793 15.6489C46.147 15.7606 46.3552 16.15 46.2435 16.5177C46.1318 16.8854 45.7424 17.0936 45.3748 16.9819C45.0071 16.8702 44.7989 16.4808 44.9106 16.1131C45.0223 15.7455 45.4116 15.5372 45.7793 15.6489Z" stroke="#B0B0B0" stroke-width="0.8" stroke-linecap="round" stroke-linejoin="round"/>
<path d="M45.9764 15.744L46.5708 14.8958L47.4222 14.7451" stroke="#B0B0B0" stroke-width="0.8" stroke-linecap="round" stroke-linejoin="round"/>
<path d="M46.5725 14.8963L46.4217 14.0449" stroke="#B0B0B0" stroke-width="0.8" stroke-linecap="round" stroke-linejoin="round"/>
<path d="M45.1582 15.7585L44.5345 14.931L44.6549 14.0752" stroke="#B0B0B0" stroke-width="0.8" stroke-linecap="round" stroke-linejoin="round"/>
<path d="M44.5346 14.9305L43.6789 14.8101" stroke="#B0B0B0" stroke-width="0.8" stroke-linecap="round" stroke-linejoin="round"/>
<path d="M44.918 16.541L43.9386 16.8783L43.1609 16.4987" stroke="#B0B0B0" stroke-width="0.8" stroke-linecap="round" stroke-linejoin="round"/>
<path d="M43.9394 16.8787L43.5598 17.6553" stroke="#B0B0B0" stroke-width="0.8" stroke-linecap="round" stroke-linejoin="round"/>
<path d="M45.5885 17.0107L45.6069 18.0464L45.0061 18.669" stroke="#B0B0B0" stroke-width="0.8" stroke-linecap="round" stroke-linejoin="round"/>
<path d="M45.6076 18.0466L46.2291 18.6475" stroke="#B0B0B0" stroke-width="0.8" stroke-linecap="round" stroke-linejoin="round"/>
<path d="M46.2431 16.5186L47.2344 16.8212L47.64 17.5848" stroke="#B0B0B0" stroke-width="0.8" stroke-linecap="round" stroke-linejoin="round"/>
<path d="M47.2348 16.8213L47.9983 16.4156" stroke="#B0B0B0" stroke-width="0.8" stroke-linecap="round" stroke-linejoin="round"/>
<path d="M14.9069 17.6554H41.4846" stroke="#B0B0B0" stroke-width="0.8" stroke-linecap="round" stroke-linejoin="round"/>
<path d="M6.72263 17.6553H5.08379C5.08379 17.6553 2.56539 18.3082 1.30077 15.6174C0.037226 12.9265 1.50248 12.7487 1.50248 12.7487C1.50248 12.7487 1.35064 12.0914 1.50248 11.2324C1.65433 10.3734 2.5643 10.0198 2.5643 10.0198C2.5643 10.0198 1.2498 8.09905 1.95803 7.08822C2.66518 6.07739 9.79199 0.871397 11.5111 0.770531C13.2301 0.669665 24.3482 0.21414 29.1496 0.770531C33.9511 1.32692 39.6126 5.72381 41.5497 6.17825C43.4868 6.63269 49.4531 7.18909 51.3066 7.50795C52.9183 7.78561 54.1689 9.51443 53.9161 10.5762C53.6634 11.638 54.5734 12.5469 54.7252 13.5068C54.8771 14.4666 54.5235 16.4894 54.119 16.6889C53.7144 16.8885 51.3066 17.6553 51.3066 17.6553H49.6678" stroke="#B0B0B0" stroke-width="0.8" stroke-linecap="round" stroke-linejoin="round"/>
<path d="M1.50407 12.7497C2.50189 13.6098 4.3218 13.7985 5.54955 14.0447" stroke="#B0B0B0" stroke-width="0.8" stroke-linecap="round" stroke-linejoin="round"/>
<path d="M5.24304 17.6548C4.74522 15.5898 5.41875 13.3273 7.16818 11.8859C9.60958 9.87183 13.2212 10.2189 15.2353 12.6603C16.4284 14.106 16.7928 15.9628 16.3839 17.6548" stroke="#B0B0B0" stroke-width="0.8" stroke-linecap="round" stroke-linejoin="round"/>
<path d="M39.9887 17.5843C39.5223 15.5388 40.2013 13.311 41.9301 11.8859C44.3715 9.87183 47.9832 10.2189 49.9973 12.6603C51.1903 14.106 51.5547 15.9628 51.1458 17.6548" stroke="#B0B0B0" stroke-width="0.8" stroke-linecap="round" stroke-linejoin="round"/>
<path d="M2.29359 9.56549H5.38249C6.2545 9.56549 6.97467 7.84643 7.12651 7.50478C7.27835 7.16314 4.62441 7.27701 4.20793 7.23905C3.79145 7.20109 3.94218 5.34755 3.94218 5.34755" stroke="#B0B0B0" stroke-width="0.8" stroke-linecap="round" stroke-linejoin="round"/>
<path d="M11.5112 0.770218C11.5112 0.770218 6.29218 1.47737 5.38221 1.85697C4.47225 2.23657 6.31608 3.61507 6.31608 3.61507" stroke="#B0B0B0" stroke-width="0.8" stroke-linecap="round" stroke-linejoin="round"/>
<path d="M42.1039 7.64325C39.5768 7.44152 36.2265 5.17908 33.0422 3.5739C29.8579 1.96872 26.2191 2.08477 20.6595 2.08477C15.7051 2.08477 11.755 2.23662 11.7333 3.29842C11.7127 4.36023 11.6509 7.08904 11.8082 7.74629C11.9654 8.40355 13.3223 11.1551 13.3223 11.1551" stroke="#B0B0B0" stroke-width="0.8" stroke-linecap="round" stroke-linejoin="round"/>
<path d="M53.9734 11.5697C53.9734 11.5697 52.8552 11.7378 51.3075 11.5697C49.7587 11.4016 49.5722 8.88211 49.5722 8.88211L53.5688 9.11204" stroke="#B0B0B0" stroke-width="0.8" stroke-linecap="round" stroke-linejoin="round"/>
<path d="M54.7211 14.7451H53.31" stroke="#B0B0B0" stroke-width="0.8" stroke-linecap="round" stroke-linejoin="round"/>
<path d="M11.7346 3.29753C11.7346 3.29753 14.9482 6.32243 16.7681 6.42763C18.5881 6.53284 33.1323 6.65865 33.1323 6.65865" stroke="#B0B0B0" stroke-width="0.8" stroke-linecap="round" stroke-linejoin="round"/>
<path d="M16.2247 2.19191L16.767 6.42721" stroke="#B0B0B0" stroke-width="0.8" stroke-linecap="round" stroke-linejoin="round"/>
<path d="M23.6938 2.24956C25.1862 7.7267 25.8922 12.8015 25.3445 17.5845" stroke="#B0B0B0" stroke-width="0.8" stroke-linecap="round" stroke-linejoin="round"/>
<path d="M16.2247 14.4143H18.5371C18.9416 14.4143 18.8994 15.9837 22.4329 15.9837H36.1768C37.0867 15.9837 39.988 14.0672 40.2808 14.116" stroke="#B0B0B0" stroke-width="0.8" stroke-linecap="round" stroke-linejoin="round"/>
<path d="M38.4508 17.6554C38.7805 13.0329 38.7176 8.54815 37.3999 6.05686C38.8304 6.26727 39.9703 6.52433 40.5419 5.78139" stroke="#B0B0B0" stroke-width="0.8" stroke-linecap="round" stroke-linejoin="round"/>
<path d="M26.9568 8.4521H28.6455" stroke="#B0B0B0" stroke-width="0.8" stroke-linecap="round" stroke-linejoin="round"/>
<path d="M15.0544 8.45265H16.7442" stroke="#B0B0B0" stroke-width="0.8" stroke-linecap="round" stroke-linejoin="round"/>
<path d="M29.3041 2.41453L32.6793 1.72148" stroke="#B0B0B0" stroke-width="0.8" stroke-linecap="round" stroke-linejoin="round"/>
<path d="M35.5307 6.7157H37.6998" stroke="#B0B0B0" stroke-width="0.8" stroke-linecap="round" stroke-linejoin="round"/>
</svg>