<svg width="44" height="25" viewBox="0 0 44 25" fill="none" xmlns="http://www.w3.org/2000/svg">
<path d="M35.195 19.4022L34.2949 19.6264V17.5776L35.195 17.8019C35.4924 17.8757 35.7051 18.1782 35.7051 18.5282V18.675C35.7051 19.025 35.4924 19.3275 35.195 19.4013V19.4022Z" stroke="#B0B0B0" stroke-width="0.8" stroke-linecap="round" stroke-linejoin="round"/>
<path d="M35.3506 14.4139C35.8331 14.2267 36.3562 14.1248 36.9035 14.1248C39.3106 14.1248 41.2622 16.1086 41.2622 18.5557C41.2622 21.0028 39.3106 22.9867 36.9035 22.9867C34.4963 22.9867 32.5449 21.0028 32.5449 18.5557C32.5449 17.2733 33.0801 16.1192 33.9361 15.3096" stroke="#B0B0B0" stroke-width="0.8" stroke-linecap="round" stroke-linejoin="round"/>
<path d="M35.1739 17.7065C35.4773 17.0577 36.1284 16.6094 36.8824 16.6094C37.9269 16.6094 38.7733 17.47 38.7733 18.532C38.7733 19.5939 37.9269 20.4545 36.8824 20.4545C36.1621 20.4545 35.5361 20.0458 35.2171 19.4436" stroke="#B0B0B0" stroke-width="0.8" stroke-linecap="round" stroke-linejoin="round"/>
<path d="M36.8455 17.6422C37.1611 17.6027 37.4862 17.7451 37.6686 18.0362C37.9211 18.4398 37.8044 18.9753 37.4084 19.232C37.0124 19.4888 36.485 19.3701 36.2325 18.9674C36.0587 18.6895 36.0595 18.3483 36.2074 18.0792" stroke="#B0B0B0" stroke-width="0.8" stroke-linecap="round" stroke-linejoin="round"/>
<path d="M39.9107 13.4365C41.6261 14.4781 42.7744 16.3846 42.7744 18.5637C42.7744 21.8599 40.1459 24.532 36.9035 24.532C34.2404 24.532 31.9914 22.7292 31.2729 20.2592" stroke="#B0B0B0" stroke-width="0.8" stroke-linecap="round" stroke-linejoin="round"/>
<path d="M32.4776 13.1919C30.9732 14.4763 30.0177 16.4023 30.0177 18.5561C30.0177 19.2673 30.1223 19.9539 30.316 20.6009C30.316 20.6009 31.7332 20.2502 31.8845 19.1592C32.0358 18.0682 32.5087 15.7887 33.8515 14.9334" stroke="#B0B0B0" stroke-width="0.8" stroke-linecap="round" stroke-linejoin="round"/>
<path d="M34.1595 12.1374C34.9999 11.7655 35.9285 11.5588 36.9038 11.5588C38.1653 11.5588 39.3473 11.9035 40.3641 12.5058C40.3641 12.5058 39.8748 14.1651 38.4767 13.8327C36.7941 13.4335 35.0717 14.1282 35.0717 14.1282" stroke="#B0B0B0" stroke-width="0.8" stroke-linecap="round" stroke-linejoin="round"/>
<path d="M32.6379 10.2644L31.4145 11.0574L34.4612 15.9154L35.6846 15.1224L32.6379 10.2644Z" stroke="#B0B0B0" stroke-width="0.8" stroke-linecap="round" stroke-linejoin="round"/>
<path d="M35.0711 15.5129L36.8748 18.3891" stroke="#B0B0B0" stroke-width="0.8" stroke-linecap="round" stroke-linejoin="round"/>
<path d="M36.4978 14.2415L37.4559 16.6956L39.5863 15.1858" stroke="#B0B0B0" stroke-width="0.8" stroke-linecap="round" stroke-linejoin="round"/>
<path d="M33.0256 16.7261L35.5953 17.1095" stroke="#B0B0B0" stroke-width="0.8" stroke-linecap="round" stroke-linejoin="round"/>
<path d="M34.1615 18.5376L32.6622 17.8228" stroke="#B0B0B0" stroke-width="0.8" stroke-linecap="round" stroke-linejoin="round"/>
<path d="M33.4027 21.0174L34.4082 19.7239" stroke="#B0B0B0" stroke-width="0.8" stroke-linecap="round" stroke-linejoin="round"/>
<path d="M37.2515 22.8311L36.2926 20.377L34.1621 21.8867" stroke="#B0B0B0" stroke-width="0.8" stroke-linecap="round" stroke-linejoin="round"/>
<path d="M40.7236 20.3508L38.1548 19.9683L38.3744 22.5991" stroke="#B0B0B0" stroke-width="0.8" stroke-linecap="round" stroke-linejoin="round"/>
<path d="M40.346 16.061L38.7352 18.1318L41.0862 19.2538" stroke="#B0B0B0" stroke-width="0.8" stroke-linecap="round" stroke-linejoin="round"/>
<path d="M11.9863 19.4553C11.5799 21.476 9.82207 22.9954 7.7158 22.9954C5.60953 22.9954 4.00044 21.6017 3.50414 19.7086" stroke="#B0B0B0" stroke-width="0.8" stroke-linecap="round" stroke-linejoin="round"/>
<path d="M3.479 17.5101C3.94159 15.5677 5.66309 14.1248 7.71575 14.1248C9.7684 14.1248 11.6274 15.6855 12.0018 17.7466" stroke="#B0B0B0" stroke-width="0.8" stroke-linecap="round" stroke-linejoin="round"/>
<path d="M6.05817 17.5837C6.38327 17.0016 6.99803 16.6094 7.70358 16.6094C8.40913 16.6094 9.04983 17.0183 9.36888 17.6206" stroke="#B0B0B0" stroke-width="0.8" stroke-linecap="round" stroke-linejoin="round"/>
<path d="M9.32426 19.5256C8.9931 20.084 8.39131 20.4577 7.70306 20.4577C7.05458 20.4577 6.48218 20.1253 6.14151 19.6188" stroke="#B0B0B0" stroke-width="0.8" stroke-linecap="round" stroke-linejoin="round"/>
<path d="M13.423 17.1577C13.5293 17.6079 13.5864 18.0775 13.5864 18.5611C13.5864 19.0051 13.5388 19.4378 13.4481 19.8546" stroke="#B0B0B0" stroke-width="0.8" stroke-linecap="round" stroke-linejoin="round"/>
<path d="M12.8185 21.5086C11.8078 23.3107 9.90122 24.5256 7.71455 24.5256C4.47214 24.5256 1.84364 21.8532 1.84364 18.5566C1.84364 17.8753 1.95604 17.2203 2.16269 16.6094" stroke="#B0B0B0" stroke-width="0.8" stroke-linecap="round" stroke-linejoin="round"/>
<path d="M2.05806 13.923C1.50383 14.6201 1.07236 15.421 0.795676 16.293C0.504292 17.3093 3.25991 16.1717 3.60922 15.7876C4.49289 14.4399 6.00168 13.5511 7.71454 13.5511C9.69197 13.5511 11.3971 14.7344 12.183 16.4425L12.9093 16.7801C12.9093 16.7801 13.3926 17.0913 15.3675 17.1229C17.3415 17.1545 18.7923 17.442 19.4979 15.7823C20.2034 14.1234 20.0824 11.8896 20.0824 11.8896C18.8874 13.1476 17.1486 13.9371 15.2265 14.4716C14.47 14.6825 13.8682 14.5489 13.3753 13.9283C12.0429 12.2483 10.0015 11.1741 7.71454 11.1741C6.25675 11.1741 4.8984 11.611 3.76053 12.3617" stroke="#B0B0B0" stroke-width="0.8" stroke-linecap="round" stroke-linejoin="round"/>
<path d="M7.58502 14.2297L8.38482 16.7419L10.607 15.3755" stroke="#B0B0B0" stroke-width="0.8" stroke-linecap="round" stroke-linejoin="round"/>
<path d="M3.96237 16.4708L6.50181 17.0213L6.44908 14.3816" stroke="#B0B0B0" stroke-width="0.8" stroke-linecap="round" stroke-linejoin="round"/>
<path d="M7.79048 22.854L6.98982 20.3418L4.7677 21.7082" stroke="#B0B0B0" stroke-width="0.8" stroke-linecap="round" stroke-linejoin="round"/>
<path d="M11.4123 20.6007L8.87283 20.0503L8.92556 22.6899" stroke="#B0B0B0" stroke-width="0.8" stroke-linecap="round" stroke-linejoin="round"/>
<path d="M12.6483 18.2974L12.2247 17.8349L3.30673 17.5896C2.95223 17.5799 2.65912 17.8692 2.65912 18.2297V18.9815C2.65912 19.342 2.95223 19.6322 3.30673 19.6217L12.2247 19.3763L12.5869 19.0158" stroke="#B0B0B0" stroke-width="0.8" stroke-linecap="round" stroke-linejoin="round"/>
<path d="M12.649 18.6827H18.5916C19.4174 18.6827 19.8912 17.2855 20.1834 16.4088C20.3667 15.8602 20.6244 15.5269 20.851 15.3264" stroke="#B0B0B0" stroke-width="0.8" stroke-linecap="round" stroke-linejoin="round"/>
<path d="M20.3456 21.5111H13.5486C13.0982 21.5111 12.7004 21.2333 12.5707 20.8288L12.4428 20.4296C12.3727 20.2115 12.5465 19.9917 12.7895 19.9917H21.1056C21.3486 19.9917 21.5224 20.2115 21.4523 20.4296L21.3244 20.8288C21.1947 21.2342 20.7969 21.5111 20.3465 21.5111H20.3456Z" stroke="#B0B0B0" stroke-width="0.8" stroke-linecap="round" stroke-linejoin="round"/>
<path d="M21.3232 20.828H27.3748C29.0669 20.828 29.0669 18.5339 29.0669 18.5339" stroke="#B0B0B0" stroke-width="0.8" stroke-linecap="round" stroke-linejoin="round"/>
<path d="M27.3155 19.1136H27.7184L29.5117 18.0277V16.6094" stroke="#B0B0B0" stroke-width="0.8" stroke-linecap="round" stroke-linejoin="round"/>
<path d="M30.018 16.2476L28.8075 16.9492" stroke="#B0B0B0" stroke-width="0.8" stroke-linecap="round" stroke-linejoin="round"/>
<path d="M24.4837 15.3307C24.52 15.7087 24.3946 16.0981 24.1119 16.3847C23.6363 16.8682 22.8754 16.899 22.3644 16.4559L20.8522 15.1469C20.6248 14.95 20.6109 14.5966 20.8219 14.3821L22.1405 13.0415C22.3523 12.8261 22.699 12.8402 22.8927 13.0723L23.8317 14.1931" stroke="#B0B0B0" stroke-width="0.8" stroke-linecap="round" stroke-linejoin="round"/>
<path d="M21.3144 15.5569L23.2961 13.5415" stroke="#B0B0B0" stroke-width="0.8" stroke-linecap="round" stroke-linejoin="round"/>
<path d="M22.3649 16.4387L24.0657 14.7083" stroke="#B0B0B0" stroke-width="0.8" stroke-linecap="round" stroke-linejoin="round"/>
<path d="M25.5995 15.3386C25.5658 15.714 25.6912 16.0999 25.9722 16.3847C26.4478 16.8682 27.2086 16.899 27.7196 16.4559L29.2319 15.1469C29.4593 14.95 29.4731 14.5966 29.2621 14.3821L27.9436 13.0415C27.7317 12.8261 27.385 12.8402 27.1913 13.0723L26.3077 14.1272" stroke="#B0B0B0" stroke-width="0.8" stroke-linecap="round" stroke-linejoin="round"/>
<path d="M28.7702 15.5569L26.7885 13.5415" stroke="#B0B0B0" stroke-width="0.8" stroke-linecap="round" stroke-linejoin="round"/>
<path d="M27.7193 16.4435L26.0471 14.7429" stroke="#B0B0B0" stroke-width="0.8" stroke-linecap="round" stroke-linejoin="round"/>
<path d="M26.4563 13.2927C26.4563 14.4153 25.0426 15.9519 25.0426 15.9519C25.0426 15.9519 23.6289 14.4162 23.6289 13.2927C23.6289 12.1692 24.2618 11.8853 25.0426 11.8853C25.8234 11.8853 26.4563 12.1701 26.4563 13.2927Z" stroke="#B0B0B0" stroke-width="0.8" stroke-linecap="round" stroke-linejoin="round"/>
<path d="M24.9807 13.2036H25.1017" stroke="#B0B0B0" stroke-width="0.8" stroke-linecap="round" stroke-linejoin="round"/>
<path d="M25.0421 19.8534C25.9451 19.8534 26.6772 19.1089 26.6772 18.1906C26.6772 17.2723 25.9451 16.5278 25.0421 16.5278C24.1391 16.5278 23.4071 17.2723 23.4071 18.1906C23.4071 19.1089 24.1391 19.8534 25.0421 19.8534Z" stroke="#B0B0B0" stroke-width="0.8" stroke-linecap="round" stroke-linejoin="round"/>
<path d="M23.6285 17.3442L21.4652 18.4258C21.0268 18.6447 21.0363 19.2849 21.4816 19.4898L23.8914 20.5994" stroke="#B0B0B0" stroke-width="0.8" stroke-linecap="round" stroke-linejoin="round"/>
<path d="M29.249 16.5245L30.5382 12.1554L29.249 10.9871" stroke="#B0B0B0" stroke-width="0.8" stroke-linecap="round" stroke-linejoin="round"/>
<path d="M3.64115 14.024L2.16607 14.1497C1.97844 13.5192 1.97844 12.8888 2.16607 12.2583L3.64115 12.384C4.0605 12.4201 4.38213 12.7762 4.38213 13.2036C4.38213 13.6309 4.05963 13.9879 3.64115 14.0231V14.024Z" stroke="#B0B0B0" stroke-width="0.8" stroke-linecap="round" stroke-linejoin="round"/>
<path d="M31.5921 9.88333L33.2549 10.0091C33.4667 9.3786 33.4667 8.74814 33.2549 8.11768L31.5921 8.24343C31.1201 8.27948 30.756 8.63559 30.756 9.06293C30.756 9.49027 31.1192 9.84727 31.5921 9.88244V9.88333Z" stroke="#B0B0B0" stroke-width="0.8" stroke-linecap="round" stroke-linejoin="round"/>
<path d="M5.4879 12.7819C8.23659 11.7373 11.319 12.6895 12.7353 15.1727" stroke="#B0B0B0" stroke-width="0.8" stroke-linecap="round" stroke-linejoin="round"/>
<path d="M14.361 14.5564C13.6961 15.0022 13.8975 16.4407 14.782 17.0897" stroke="#B0B0B0" stroke-width="0.8" stroke-linecap="round" stroke-linejoin="round"/>
<path d="M11.3051 12.1314C11.3051 12.1314 11.9432 9.83701 13.6959 10.3293C15.4485 10.8207 15.0482 11.2822 17.1008 11.146C19.5382 10.9842 20.0908 11.5381 20.0908 11.5381C20.0908 11.5381 23.7931 7.85025 26.5903 7.60498C28.9274 7.40016 29.5119 8.11749 29.4116 8.89549C29.2888 9.8537 29.4116 11.7016 27.5768 11.5583C23.6764 11.2532 20.3666 13.0835 20.3666 13.0835" stroke="#B0B0B0" stroke-width="0.8" stroke-linecap="round" stroke-linejoin="round"/>
<path d="M25.7308 7.76957L25.5942 7.37477L27.1938 7.14966L27.2145 7.56645" stroke="#B0B0B0" stroke-width="0.8" stroke-linecap="round" stroke-linejoin="round"/>
<path d="M13.2042 11.3723C13.2042 11.3723 13.9115 11.9201 14.375 12.7801C14.8384 13.6409 16.738 12.3149 17.7055 12.0485C18.6722 11.7821 20.0911 11.5359 20.0911 11.5359" stroke="#B0B0B0" stroke-width="0.8" stroke-linecap="round" stroke-linejoin="round"/>
<path d="M14.9247 17.0874L15.1469 18.5365" stroke="#B0B0B0" stroke-width="0.8" stroke-linecap="round" stroke-linejoin="round"/>
<path d="M16.235 17.3442V18.5304" stroke="#B0B0B0" stroke-width="0.8" stroke-linecap="round" stroke-linejoin="round"/>
<path d="M17.8269 17.1577L17.4439 18.605" stroke="#B0B0B0" stroke-width="0.8" stroke-linecap="round" stroke-linejoin="round"/>
<path d="M19.0863 18.5105L19.4382 19.9983" stroke="#B0B0B0" stroke-width="0.8" stroke-linecap="round" stroke-linejoin="round"/>
<path d="M19.672 17.7173L21.6364 18.3433" stroke="#B0B0B0" stroke-width="0.8" stroke-linecap="round" stroke-linejoin="round"/>
<path d="M31.5392 11.2542L31.0628 11.5628L29.4122 8.89941" stroke="#B0B0B0" stroke-width="0.8" stroke-linecap="round" stroke-linejoin="round"/>
<path d="M29.0471 7.64385L28.2611 5.99779L29.8131 4.81689L30.9406 5.90282" stroke="#B0B0B0" stroke-width="0.8" stroke-linecap="round" stroke-linejoin="round"/>
<path d="M29.0025 7.94095C29.0025 7.94095 30.0375 6.44437 31.5817 5.84469C33.7459 5.00495 34.1609 5.49648 34.1609 5.49648L33.2522 8.12119" stroke="#B0B0B0" stroke-width="0.8" stroke-linecap="round" stroke-linejoin="round"/>
<path d="M34.1617 5.70361C34.1617 5.70361 34.9502 6.37011 34.5274 7.77876C34.1046 9.1874 33.5486 9.06957 33.5486 9.06957" stroke="#B0B0B0" stroke-width="0.8" stroke-linecap="round" stroke-linejoin="round"/>
<path d="M27.6172 4.37047C27.6172 4.75561 27.2402 4.88312 26.7508 4.88312C26.2614 4.88312 25.8438 4.75561 25.8438 4.37047C25.8438 3.98534 26.2407 3.67407 26.7301 3.67407C27.2194 3.67407 27.6163 3.98622 27.6163 4.37047H27.6172Z" stroke="#B0B0B0" stroke-width="0.8" stroke-linecap="round" stroke-linejoin="round"/>
<path d="M25.096 2.20935C24.8436 2.56811 24.2392 2.56899 23.7455 2.21023C23.2518 1.85148 23.0564 1.27026 23.3088 0.910621C23.5613 0.551865 24.1657 0.550985 24.6594 0.909741C25.1531 1.2685 25.3485 1.84972 25.096 2.20935Z" stroke="#B0B0B0" stroke-width="0.8" stroke-linecap="round" stroke-linejoin="round"/>
<path d="M25.2806 2.07593C26.0389 2.15067 26.3683 2.60966 26.53 3.69472" stroke="#B0B0B0" stroke-width="0.8" stroke-linecap="round" stroke-linejoin="round"/>
<path d="M25.8654 4.51367L23.1045 5.5996" stroke="#B0B0B0" stroke-width="0.8" stroke-linecap="round" stroke-linejoin="round"/>
<path d="M26.5895 5.02686C26.5895 5.02686 27.5164 5.35484 25.7638 5.82615C24.0112 6.29746 24.555 6.89186 24.555 6.89186" stroke="#B0B0B0" stroke-width="0.8" stroke-linecap="round" stroke-linejoin="round"/>
<path d="M27.6176 4.36182L28.5445 4.64847L30.017 6.82563" stroke="#B0B0B0" stroke-width="0.8" stroke-linecap="round" stroke-linejoin="round"/>
<path d="M27.5157 18.4055L27.1837 19.8502" stroke="#B0B0B0" stroke-width="0.8" stroke-linecap="round" stroke-linejoin="round"/>
<path d="M11.4127 16.2129L10.1426 17.8132" stroke="#B0B0B0" stroke-width="0.8" stroke-linecap="round" stroke-linejoin="round"/>
<path d="M3.87857 20.6635L4.70085 19.6189" stroke="#B0B0B0" stroke-width="0.8" stroke-linecap="round" stroke-linejoin="round"/>
</svg>
