<svg width="40" height="29" viewBox="0 0 40 29" fill="none" xmlns="http://www.w3.org/2000/svg">
<path d="M12.7434 22.864C12.7434 22.864 9.21952 23.148 7.771 23.148C6.32248 23.148 5.14787 23.5 5.14787 22.4825C5.14787 21.465 10.8252 21.6012 10.8252 21.6012" stroke="#B0B0B0" stroke-width="0.8" stroke-linecap="round" stroke-linejoin="round"/>
<path d="M13.9708 23.1277C13.9826 23.2109 13.9885 23.2958 13.9885 23.3823C13.9885 24.4099 13.1558 25.2425 12.1282 25.2425C11.1007 25.2425 10.268 24.4099 10.268 23.3823C10.268 23.284 10.2756 23.1882 10.2899 23.0941" stroke="#B0B0B0" stroke-width="0.8" stroke-linecap="round" stroke-linejoin="round"/>
<path d="M22.026 24.7132C26.5287 26.3574 33.3814 23.0689 32.5975 18.0571C31.8144 13.0452 26.6068 7.32847 26.6068 7.32847C26.6068 7.32847 29.9567 12.6545 30.3264 17.5479C30.8356 24.283 24.571 25.9273 16.6613 23.8906C8.67762 21.8355 3.66241 16.2599 3.58343 15.4726C3.50529 14.6895 4.406 12.6142 4.87567 12.5747C5.34535 12.5352 6.67708 13.162 6.67708 13.162C6.67708 13.162 8.1256 14.6105 12.9417 15.7851C17.7577 16.9597 18.6585 17.4689 18.7761 15.9414C18.8937 14.4148 18.9718 11.6732 16.1529 11.0859C13.334 10.4986 8.03149 10.9976 6.79471 11.2035C4.91516 11.5169 6.67708 13.1612 6.67708 13.1612" stroke="#B0B0B0" stroke-width="0.8" stroke-linecap="round" stroke-linejoin="round"/>
<path d="M3.77738 16.0214C3.77738 16.0214 1.429 16.8272 1.70207 17.3523C2.21124 18.3312 5.18725 17.6262 5.18725 17.6262" stroke="#B0B0B0" stroke-width="0.8" stroke-linecap="round" stroke-linejoin="round"/>
<path d="M13.2142 10.9696L11.9219 15.3555" stroke="#B0B0B0" stroke-width="0.8" stroke-linecap="round" stroke-linejoin="round"/>
<path d="M11.5291 16.373C10.231 19.4364 11.1124 21.6453 13.996 23.0686L14.2312 24.9868C17.6416 26.011 20.7529 25.7313 23.7852 25.1045" stroke="#B0B0B0" stroke-width="0.8" stroke-linecap="round" stroke-linejoin="round"/>
<path d="M5.42107 14.1023L5.69497 14.1813" stroke="#B0B0B0" stroke-width="0.8" stroke-linecap="round" stroke-linejoin="round"/>
<path d="M18.1093 16.96C18.1093 16.96 17.4439 20.9535 18.0312 21.6979C18.6185 22.4415 21.0072 22.8725 23.8656 22.5205C26.724 22.1684 28.5641 20.0931 28.2902 16.7651C28.0162 13.437 25.0402 6.97665 24.7268 6.03646C24.4134 5.09711 24.6873 4.62661 25.5494 4.39219C26.4106 4.15694 27.2718 3.76538 27.8986 5.21474C28.5254 6.66325 28.838 6.97666 28.2507 7.44633C27.6633 7.91601 27.4676 8.15128 27.4676 8.15128" stroke="#B0B0B0" stroke-width="0.8" stroke-linecap="round" stroke-linejoin="round"/>
<path d="M27.7439 4.93995C27.6758 5.89022 26.765 6.4666 26.6087 7.32865" stroke="#B0B0B0" stroke-width="0.8" stroke-linecap="round" stroke-linejoin="round"/>
<path d="M24.5671 8.38575C24.0193 8.30762 25.8198 6.19281 25.8198 6.19281L23.1572 7.85726" stroke="#B0B0B0" stroke-width="0.8" stroke-linecap="round" stroke-linejoin="round"/>
<path d="M26.7803 2.74771V0.809348C26.7803 0.310265 27.7785 0.427897 28.0725 1.63191C28.3666 2.83593 28.3666 2.80652 28.0431 3.18798C27.7205 3.56943 26.7803 2.74771 26.7803 2.74771Z" stroke="#B0B0B0" stroke-width="0.8" stroke-linecap="round" stroke-linejoin="round"/>
<path d="M28.0434 3.18824L27.1923 4.24523" stroke="#B0B0B0" stroke-width="0.8" stroke-linecap="round" stroke-linejoin="round"/>
<path d="M32.5992 18.0574C32.5992 18.0574 34.9484 17.9398 35.6929 18.3313C36.4365 18.7229 33.8133 20.9158 31.9338 21.5418" stroke="#B0B0B0" stroke-width="0.8" stroke-linecap="round" stroke-linejoin="round"/>
<path d="M32.7521 21.3074C32.7521 21.3074 34.1225 22.482 34.6804 22.8635C35.2383 23.2449 34.6703 24.843 33.457 24.1851C32.1749 23.4903 31.4011 23.0693 31.4011 23.0693" stroke="#B0B0B0" stroke-width="0.8" stroke-linecap="round" stroke-linejoin="round"/>
<path d="M31.6568 15.0426C31.6568 15.0426 30.6435 15.5795 31.2459 16.6675C31.7551 17.5876 32.4398 17.4313 32.4398 17.4313" stroke="#B0B0B0" stroke-width="0.8" stroke-linecap="round" stroke-linejoin="round"/>
<path d="M32.9971 21.0759C33.3441 20.9297 33.7247 20.8482 34.1247 20.8482C35.7253 20.8482 37.0225 22.1455 37.0225 23.7461C37.0225 25.3467 35.7253 26.6439 34.1247 26.6439C32.5241 26.6439 31.2268 25.3467 31.2268 23.7461C31.2268 22.7319 31.7477 21.8405 32.5358 21.3221" stroke="#B0B0B0" stroke-width="0.8" stroke-linecap="round" stroke-linejoin="round"/>
<path d="M35.4567 19.1746C37.4379 19.7502 38.8864 21.5793 38.8864 23.7462C38.8864 26.3752 36.7548 28.5068 34.1258 28.5068C31.4968 28.5068 29.4232 26.4323 29.3669 23.852" stroke="#B0B0B0" stroke-width="0.8" stroke-linecap="round" stroke-linejoin="round"/>
<path d="M10.3578 24.0317C9.82512 24.0317 9.37477 24.0485 9.14371 24.0871C8.43878 24.2048 5.97192 24.7139 5.42411 24.8307C4.87629 24.9484 4.87629 25.849 5.58038 25.8877C7.30029 25.9835 12.5113 25.8877 13.5682 25.8877C14.5059 25.8877 14.4269 24.7475 13.7682 24.3535" stroke="#B0B0B0" stroke-width="0.8" stroke-linecap="round" stroke-linejoin="round"/>
<path d="M7.29232 25.9592C6.78736 26.386 6.13451 26.6439 5.42202 26.6439C3.82142 26.6439 2.52414 25.3467 2.52414 23.7461C2.52414 22.1455 3.82142 20.8482 5.42202 20.8482C6.18409 20.8482 6.8781 21.1423 7.39566 21.6237" stroke="#B0B0B0" stroke-width="0.8" stroke-linecap="round" stroke-linejoin="round"/>
<path d="M8.25789 23.1479C8.29822 23.3412 8.32006 23.5411 8.32006 23.7461C8.32006 23.9091 8.30662 24.0688 8.28058 24.2242" stroke="#B0B0B0" stroke-width="0.8" stroke-linecap="round" stroke-linejoin="round"/>
<path d="M5.03019 25.3962C4.2824 25.2198 3.72618 24.5476 3.72618 23.746C3.72618 22.8092 4.48573 22.0505 5.42173 22.0505C5.44105 22.0505 5.46121 22.0505 5.48054 22.0513" stroke="#B0B0B0" stroke-width="0.8" stroke-linecap="round" stroke-linejoin="round"/>
<path d="M7.03773 23.2225C7.0915 23.3872 7.12007 23.5628 7.12007 23.7459C7.12007 24.019 7.05537 24.277 6.9411 24.5047" stroke="#B0B0B0" stroke-width="0.8" stroke-linecap="round" stroke-linejoin="round"/>
<path d="M10.1385 23.0834C10.1688 23.3002 10.1848 23.522 10.1848 23.7464C10.1848 23.8211 10.1831 23.8959 10.1797 23.9707" stroke="#B0B0B0" stroke-width="0.8" stroke-linecap="round" stroke-linejoin="round"/>
<path d="M8.79498 20.3843C9.13191 20.7221 9.41925 21.1111 9.64275 21.5379" stroke="#B0B0B0" stroke-width="0.8" stroke-linecap="round" stroke-linejoin="round"/>
<path d="M9.63381 25.9677C8.83561 27.4775 7.2493 28.5068 5.42269 28.5068C2.79367 28.5068 0.662064 26.3752 0.662064 23.7462C0.662064 21.1172 2.79367 18.9856 5.42269 18.9856C6.13014 18.9856 6.80147 19.1402 7.40474 19.4166" stroke="#B0B0B0" stroke-width="0.8" stroke-linecap="round" stroke-linejoin="round"/>
<path d="M5.73751 23.7463C5.73751 23.9193 5.5972 24.0596 5.42411 24.0596C5.25103 24.0596 5.11072 23.9193 5.11072 23.7463C5.11072 23.5732 5.25103 23.4329 5.42411 23.4329C5.5972 23.4329 5.73751 23.5732 5.73751 23.7463Z" stroke="#B0B0B0" stroke-width="0.8" stroke-linecap="round" stroke-linejoin="round"/>
</svg>
