<svg width="39" height="30" viewBox="0 0 39 30" fill="none" xmlns="http://www.w3.org/2000/svg">
                                            <path d="M12.4693 23.6278C12.4693 23.6278 8.94543 23.9118 7.49691 23.9118C6.04839 23.9118 4.87378 24.2638 4.87378 23.2463C4.87378 22.2288 10.5511 22.365 10.5511 22.365"  stroke="#f5822d" stroke-width="0.65" stroke-linecap="round" stroke-linejoin="round"></path>
                                            <path d="M13.6967 23.8915C13.7085 23.9747 13.7143 24.0596 13.7143 24.1461C13.7143 25.1737 12.8817 26.0063 11.8541 26.0063C10.8265 26.0063 9.9939 25.1737 9.9939 24.1461C9.9939 24.0478 10.0015 23.952 10.0157 23.8579"  stroke="#f5822d" stroke-width="0.65" stroke-linecap="round" stroke-linejoin="round"></path>
                                            <path d="M21.7519 25.477C26.2546 27.1213 33.1073 23.8327 32.3234 18.8209C31.5403 13.809 26.3327 8.09229 26.3327 8.09229C26.3327 8.09229 29.6826 13.4183 30.0523 18.3117C30.5615 25.0468 24.2969 26.6911 16.3872 24.6544C8.40352 22.5993 3.38832 17.0237 3.30934 16.2364C3.2312 15.4533 4.1319 13.378 4.60158 13.3385C5.07125 13.299 6.40299 13.9258 6.40299 13.9258C6.40299 13.9258 7.8515 15.3743 12.6676 16.549C17.4837 17.7236 18.3844 18.2327 18.502 16.7052C18.6196 15.1786 18.6978 12.437 15.8789 11.8497C13.06 11.2624 7.7574 11.7615 6.52061 11.9673C4.64107 12.2807 6.40299 13.925 6.40299 13.925"  stroke="#f5822d" stroke-width="0.65" stroke-linecap="round" stroke-linejoin="round"></path>
                                            <path d="M3.50329 16.7852C3.50329 16.7852 1.15491 17.5909 1.42798 18.1161C1.93714 19.0949 4.91316 18.39 4.91316 18.39"  stroke="#f5822d" stroke-width="0.65" stroke-linecap="round" stroke-linejoin="round"></path>
                                            <path d="M12.9401 11.7334L11.6478 16.1193"  stroke="#f5822d" stroke-width="0.65" stroke-linecap="round" stroke-linejoin="round"></path>
                                            <path d="M11.2549 17.1367C9.95681 20.2001 10.8382 22.409 13.7218 23.8323L13.957 25.7505C17.3675 26.7747 20.4787 26.4949 23.5111 25.8682"  stroke="#f5822d" stroke-width="0.65" stroke-linecap="round" stroke-linejoin="round"></path>
                                            <path d="M5.14697 14.8662L5.42088 14.9452"  stroke="#f5822d" stroke-width="0.65" stroke-linecap="round" stroke-linejoin="round"></path>
                                            <path d="M17.8352 17.724C17.8352 17.724 17.1698 21.7175 17.7571 22.4619C18.3444 23.2055 20.7331 23.6365 23.5915 23.2845C26.4499 22.9324 28.29 20.8571 28.016 17.5291C27.7421 14.201 24.7661 7.74065 24.4527 6.80046C24.1393 5.86111 24.4132 5.39061 25.2753 5.15619C26.1365 4.92094 26.9977 4.52938 27.6245 5.97874C28.2513 7.42725 28.5639 7.74065 27.9765 8.21033C27.3892 8.68001 27.1935 8.91527 27.1935 8.91527"  stroke="#f5822d" stroke-width="0.65" stroke-linecap="round" stroke-linejoin="round"></path>
                                            <path d="M27.4697 5.70361C27.4017 6.65389 26.4909 7.23026 26.3346 8.09231"  stroke="#f5822d" stroke-width="0.65" stroke-linecap="round" stroke-linejoin="round"></path>
                                            <path d="M24.2929 9.14949C23.7451 9.07135 25.5457 6.95654 25.5457 6.95654L22.8831 8.621"  stroke="#f5822d" stroke-width="0.65" stroke-linecap="round" stroke-linejoin="round"></path>
                                            <path d="M26.5062 3.51161V1.57325C26.5062 1.07417 27.5044 1.1918 27.7985 2.39581C28.0925 3.59983 28.0925 3.57042 27.7691 3.95188C27.4464 4.33333 26.5062 3.51161 26.5062 3.51161Z"  stroke="#f5822d" stroke-width="0.65" stroke-linecap="round" stroke-linejoin="round"></path>
                                            <path d="M27.7692 3.95215L26.9181 5.00913"  stroke="#f5822d" stroke-width="0.65" stroke-linecap="round" stroke-linejoin="round"></path>
                                            <path d="M32.3251 18.8213C32.3251 18.8213 34.6743 18.7036 35.4187 19.0952C36.1623 19.4867 33.5392 21.6796 31.6597 22.3056"  stroke="#f5822d" stroke-width="0.65" stroke-linecap="round" stroke-linejoin="round"></path>
                                            <path d="M32.478 22.0713C32.478 22.0713 33.8484 23.2459 34.4063 23.6274C34.9642 24.0088 34.3962 25.6069 33.1829 24.949C31.9008 24.2541 31.127 23.8332 31.127 23.8332"  stroke="#f5822d" stroke-width="0.65" stroke-linecap="round" stroke-linejoin="round"></path>
                                            <path d="M31.3826 15.8066C31.3826 15.8066 30.3693 16.3435 30.9718 17.4316C31.4809 18.3516 32.1657 18.1953 32.1657 18.1953"  stroke="#f5822d" stroke-width="0.65" stroke-linecap="round" stroke-linejoin="round"></path>
                                            <path d="M32.723 21.84C33.07 21.6938 33.4506 21.6123 33.8505 21.6123C35.4511 21.6123 36.7484 22.9096 36.7484 24.5102C36.7484 26.1108 35.4511 27.408 33.8505 27.408C32.2499 27.408 30.9526 26.1108 30.9526 24.5102C30.9526 23.496 31.4736 22.6046 32.2617 22.0862"  stroke="#f5822d" stroke-width="0.65" stroke-linecap="round" stroke-linejoin="round"></path>
                                            <path d="M35.1826 19.9385C37.1638 20.514 38.6123 22.3431 38.6123 24.51C38.6123 27.139 36.4807 29.2707 33.8517 29.2707C31.2227 29.2707 29.1491 27.1962 29.0928 24.6159"  stroke="#f5822d" stroke-width="0.65" stroke-linecap="round" stroke-linejoin="round"></path>
                                            <path d="M10.0837 24.7954C9.55101 24.7954 9.10066 24.8122 8.8696 24.8509C8.16467 24.9685 5.69781 25.4777 5.15 25.5944C4.60218 25.7121 4.60218 26.6128 5.30627 26.6514C7.02618 26.7472 12.2371 26.6514 13.2941 26.6514C14.2318 26.6514 14.1528 25.5113 13.4941 25.1172"  stroke="#f5822d" stroke-width="0.65" stroke-linecap="round" stroke-linejoin="round"></path>
                                            <path d="M7.01818 26.7233C6.51322 27.1501 5.86037 27.408 5.14788 27.408C3.54728 27.408 2.25 26.1108 2.25 24.5102C2.25 22.9096 3.54728 21.6123 5.14788 21.6123C5.90995 21.6123 6.60396 21.9064 7.12153 22.3878"  stroke="#f5822d" stroke-width="0.65" stroke-linecap="round" stroke-linejoin="round"></path>
                                            <path d="M7.98376 23.9116C8.02409 24.1049 8.04594 24.3048 8.04594 24.5098C8.04594 24.6728 8.0325 24.8325 8.00645 24.9879"  stroke="#f5822d" stroke-width="0.65" stroke-linecap="round" stroke-linejoin="round"></path>
                                            <path d="M4.75603 26.1602C4.00825 25.9837 3.45203 25.3115 3.45203 24.51C3.45203 23.5732 4.21158 22.8145 5.14757 22.8145C5.1669 22.8145 5.18706 22.8145 5.20638 22.8153"  stroke="#f5822d" stroke-width="0.65" stroke-linecap="round" stroke-linejoin="round"></path>
                                            <path d="M6.76362 23.9863C6.81739 24.151 6.84596 24.3266 6.84596 24.5098C6.84596 24.7828 6.78126 25.0408 6.66699 25.2685"  stroke="#f5822d" stroke-width="0.65" stroke-linecap="round" stroke-linejoin="round"></path>
                                            <path d="M9.86438 23.8472C9.89463 24.0639 9.9106 24.2857 9.9106 24.5101C9.9106 24.5849 9.90891 24.6597 9.90555 24.7344"  stroke="#f5822d" stroke-width="0.65" stroke-linecap="round" stroke-linejoin="round"></path>
                                            <path d="M8.52087 21.1484C8.8578 21.4862 9.14515 21.8752 9.36864 22.302"  stroke="#f5822d" stroke-width="0.65" stroke-linecap="round" stroke-linejoin="round"></path>
                                            <path d="M9.35969 26.7316C8.56149 28.2415 6.97518 29.2707 5.14856 29.2707C2.51955 29.2707 0.387939 27.1391 0.387939 24.5101C0.387939 21.8811 2.51955 19.7495 5.14856 19.7495C5.85602 19.7495 6.52734 19.9041 7.13061 20.1805"  stroke="#f5822d" stroke-width="0.65" stroke-linecap="round" stroke-linejoin="round"></path>
                                            <path d="M5.46334 24.5102C5.46334 24.6833 5.32303 24.8236 5.14994 24.8236C4.97686 24.8236 4.83655 24.6833 4.83655 24.5102C4.83655 24.3371 4.97686 24.1968 5.14994 24.1968C5.32303 24.1968 5.46334 24.3371 5.46334 24.5102Z"  stroke="#f5822d" stroke-width="0.65" stroke-linecap="round" stroke-linejoin="round"></path>
                                        </svg>