<svg xmlns="http://www.w3.org/2000/svg" width="55" height="22" fill="none" xmlns:v="https://vecta.io/nano"><g stroke="#f5822d" stroke-width=".704" stroke-linejoin="round"><path d="M33.146 5.699c1.269.18 2.215.916 2.112 1.646s-.951 1.211-2.221 1.031c-.204-.926-.344-1.845.11-2.678zM10.541 21.248a4.31 4.31 0 0 0 4.309-4.309 4.31 4.31 0 0 0-4.309-4.309 4.31 4.31 0 0 0-4.309 4.309 4.31 4.31 0 0 0 4.309 4.309z"/><use href="#B"/><use href="#C"/><g stroke-linecap="round"><path d="M10.939 16.373l.594-.848.851-.151m-.849.152l-.15-.851m-1.264 1.713l-.623-.828.12-.856m-.12.856l-.857-.12m1.241 1.731l-.979.337-.777-.38m.776.38l-.378.777m2.028-.645l.017 1.036-.6.623m.601-.623l.622.601m.015-2.129l.99.303.407.764"/><path d="M12.196 17.451l.763-.406"/></g><path d="M49.658 16.962a4.31 4.31 0 0 0-4.309-4.309 4.31 4.31 0 0 0-4.309 4.309 4.31 4.31 0 0 0 4.309 4.309 4.31 4.31 0 0 0 4.309-4.309z"/><use href="#B" x="34.764"/><use href="#C" x="34.762"/><g stroke-linecap="round"><path d="M45.702 16.373l.594-.848.851-.151m-.849.152l-.151-.851m-1.263 1.713l-.624-.828.12-.856m-.119.856l-.856-.12m1.239 1.731l-.979.337-.778-.38m.778.38l-.38.777m2.029-.645l.018 1.036-.601.623m.603-.623l.621.601m.014-2.129l.991.303.406.764m-.405-.764l.764-.406m-33.092 1.24h26.578m-34.763 0H4.81s-2.518.653-3.783-2.038.202-2.869.202-2.869-.152-.657 0-1.516S2.29 10.65 2.29 10.65.976 8.729 1.684 7.718 9.518 1.501 11.237 1.4s12.837-.556 17.639 0 10.463 4.953 12.4 5.408 7.903 1.011 9.757 1.33c1.612.278 2.862 2.007 2.61 3.068s.657 1.971.809 2.931-.202 2.983-.606 3.182-2.812.966-2.812.966h-1.639"/><path d="M1.23 13.379c.998.86 2.818 1.049 4.045 1.295m-.306 3.611a5.73 5.73 0 0 1 9.992-4.995c1.193 1.446 1.557 3.303 1.149 4.995m23.605-.071a5.73 5.73 0 0 1 10.009-4.924c1.193 1.446 1.557 3.303 1.149 4.995M2.02 10.195h3.089c.872 0 1.592-1.719 1.744-2.061s-2.502-.228-2.919-.266-.266-1.892-.266-1.892M11.237 1.4L5.108 2.487c-.91.38.934 1.758.934 1.758"/><path d="M41.83 8.273c-2.527-.202-5.877-2.464-9.062-4.069s-6.823-1.489-12.383-1.489c-4.954 0-8.904.152-8.926 1.214s-.082 3.791.075 4.448 1.514 3.409 1.514 3.409m40.651.413s-1.118.168-2.666 0-1.735-2.688-1.735-2.688l3.997.23m1.152 5.634h-1.411M11.46 3.927s3.214 3.025 5.034 3.13 16.364.231 16.364.231"/><path d="M15.951 2.822l.542 4.235m6.927-4.178c1.492 5.477 2.198 10.552 1.651 15.335"/><path d="M15.951 15.044h2.312c.404 0 .362 1.569 3.896 1.569h13.744c.91 0 3.811-1.916 4.104-1.868"/><path d="M38.177 18.285c.33-4.623.267-9.107-1.051-11.598 1.431.21 2.57.467 3.142-.275m-13.585 2.67h1.689m-13.592.001h1.69m12.56-6.039l3.375-.693m2.852 4.994h2.169"/></g></g><defs ><path id="B" d="M10.539 19.446a2.51 2.51 0 0 0 2.509-2.509 2.51 2.51 0 0 0-2.509-2.509 2.51 2.51 0 0 0-2.509 2.509 2.51 2.51 0 0 0 2.509 2.509z"/><path id="C" d="M10.743 16.279c.368.112.576.501.464.869s-.501.576-.869.464-.576-.501-.464-.869.501-.576.869-.464z"/></defs></svg>