<svg width="49" height="29" viewBox="0 0 49 29" fill="none" xmlns="http://www.w3.org/2000/svg">
                                            <path d="M39.3583 22.4658L38.3618 22.7194V20.4019L39.3583 20.6555C39.6876 20.739 39.9231 21.0812 39.9231 21.4771V21.6432C39.9231 22.0391 39.6876 22.3812 39.3583 22.4648V22.4658Z"  stroke="#f5822d" stroke-width="0.573609" stroke-linecap="round" stroke-linejoin="round"></path>
                                            <path d="M39.5306 16.8237C40.0648 16.6119 40.6439 16.4966 41.2499 16.4966C43.9149 16.4966 46.0755 18.741 46.0755 21.5094C46.0755 24.2779 43.9149 26.5223 41.2499 26.5223C38.5848 26.5223 36.4243 24.2779 36.4243 21.5094C36.4243 20.0586 37.0169 18.7529 37.9645 17.8371"  stroke="#f5822d" stroke-width="0.573609" stroke-linecap="round" stroke-linejoin="round"></path>
                                            <path d="M39.335 20.5472C39.671 19.8133 40.3918 19.3062 41.2265 19.3062C42.3829 19.3062 43.3201 20.2797 43.3201 21.481C43.3201 22.6822 42.3829 23.6557 41.2265 23.6557C40.4291 23.6557 39.7361 23.1933 39.3828 22.5122"  stroke="#f5822d" stroke-width="0.573609" stroke-linecap="round" stroke-linejoin="round"></path>
                                            <path d="M41.1857 20.4751C41.5351 20.4304 41.895 20.5915 42.097 20.9207C42.3765 21.3773 42.2473 21.983 41.8089 22.2735C41.3705 22.5639 40.7865 22.4296 40.507 21.9741C40.3146 21.6598 40.3155 21.2738 40.4792 20.9695"  stroke="#f5822d" stroke-width="0.573609" stroke-linecap="round" stroke-linejoin="round"></path>
                                            <path d="M44.5793 15.7183C46.4785 16.8966 47.7497 19.0535 47.7497 21.5187C47.7497 25.2477 44.8396 28.2708 41.2498 28.2708C38.3015 28.2708 35.8116 26.2312 35.0161 23.4369"  stroke="#f5822d" stroke-width="0.573609" stroke-linecap="round" stroke-linejoin="round"></path>
                                            <path d="M36.3499 15.4409C34.6842 16.8938 33.6265 19.0725 33.6265 21.5089C33.6265 22.3133 33.7423 23.09 33.9567 23.8219C33.9567 23.8219 35.5257 23.4251 35.6932 22.191C35.8607 20.957 36.3843 18.3784 37.871 17.4109"  stroke="#f5822d" stroke-width="0.573609" stroke-linecap="round" stroke-linejoin="round"></path>
                                            <path d="M38.2119 14.2487C39.1424 13.828 40.1705 13.5942 41.2503 13.5942C42.6469 13.5942 43.9555 13.9841 45.0813 14.6655C45.0813 14.6655 44.5395 16.5424 42.9916 16.1664C41.1287 15.7149 39.2218 16.5006 39.2218 16.5006"  stroke="#f5822d" stroke-width="0.573609" stroke-linecap="round" stroke-linejoin="round"></path>
                                            <path d="M36.5273 12.1293L35.1729 13.0264L38.5457 18.5219L39.9001 17.6248L36.5273 12.1293Z"  stroke="#f5822d" stroke-width="0.573609" stroke-linecap="round" stroke-linejoin="round"></path>
                                            <path d="M39.2212 18.0664L41.2181 21.3199"  stroke="#f5822d" stroke-width="0.573609" stroke-linecap="round" stroke-linejoin="round"></path>
                                            <path d="M40.8008 16.6279L41.8614 19.404L44.2202 17.6962"  stroke="#f5822d" stroke-width="0.573609" stroke-linecap="round" stroke-linejoin="round"></path>
                                            <path d="M36.9565 19.4385L39.8015 19.8722"  stroke="#f5822d" stroke-width="0.573609" stroke-linecap="round" stroke-linejoin="round"></path>
                                            <path d="M38.2141 21.4874L36.5542 20.6787"  stroke="#f5822d" stroke-width="0.573609" stroke-linecap="round" stroke-linejoin="round"></path>
                                            <path d="M37.374 24.2918L38.4873 22.8286"  stroke="#f5822d" stroke-width="0.573609" stroke-linecap="round" stroke-linejoin="round"></path>
                                            <path d="M41.6351 26.3439L40.5735 23.5679L38.2148 25.2757"  stroke="#f5822d" stroke-width="0.573609" stroke-linecap="round" stroke-linejoin="round"></path>
                                            <path d="M45.4793 23.5386L42.6353 23.106L42.8784 26.082"  stroke="#f5822d" stroke-width="0.573609" stroke-linecap="round" stroke-linejoin="round"></path>
                                            <path d="M45.0612 18.686L43.2778 21.0285L45.8806 22.2976"  stroke="#f5822d" stroke-width="0.573609" stroke-linecap="round" stroke-linejoin="round"></path>
                                            <path d="M13.6633 22.5259C13.2134 24.8116 11.2672 26.5304 8.93532 26.5304C6.60341 26.5304 4.82193 24.9538 4.27246 22.8123"  stroke="#f5822d" stroke-width="0.573609" stroke-linecap="round" stroke-linejoin="round"></path>
                                            <path d="M4.24463 20.326C4.75677 18.1288 6.66269 16.4966 8.93525 16.4966C11.2078 16.4966 13.2659 18.2621 13.6804 20.5936"  stroke="#f5822d" stroke-width="0.573609" stroke-linecap="round" stroke-linejoin="round"></path>
                                            <path d="M7.1001 20.4082C7.46003 19.7498 8.14065 19.3062 8.92179 19.3062C9.70292 19.3062 10.4123 19.7687 10.7655 20.45"  stroke="#f5822d" stroke-width="0.573609" stroke-linecap="round" stroke-linejoin="round"></path>
                                            <path d="M10.7161 22.605C10.3495 23.2366 9.68321 23.6593 8.92122 23.6593C8.20327 23.6593 7.56955 23.2833 7.19238 22.7104"  stroke="#f5822d" stroke-width="0.573609" stroke-linecap="round" stroke-linejoin="round"></path>
                                            <path d="M15.2539 19.9268C15.3717 20.436 15.4348 20.9672 15.4348 21.5142C15.4348 22.0165 15.3822 22.5059 15.2817 22.9774"  stroke="#f5822d" stroke-width="0.573609" stroke-linecap="round" stroke-linejoin="round"></path>
                                            <path d="M14.5847 24.848C13.4657 26.8866 11.3549 28.2609 8.93394 28.2609C5.34417 28.2609 2.43408 25.2378 2.43408 21.5088C2.43408 20.7381 2.55852 19.9973 2.78731 19.3062"  stroke="#f5822d" stroke-width="0.573609" stroke-linecap="round" stroke-linejoin="round"></path>
                                            <path d="M2.67147 16.2682C2.05786 17.0568 1.58017 17.9627 1.27384 18.9492C0.951244 20.0987 4.00207 18.812 4.38881 18.3774C5.36714 16.8529 7.03757 15.8476 8.93392 15.8476C11.1232 15.8476 13.011 17.1861 13.8811 19.1182L14.6852 19.5001C14.6852 19.5001 15.2203 19.8521 17.4067 19.8879C19.5922 19.9237 21.1985 20.2489 21.9796 18.3714C22.7607 16.495 22.6267 13.9681 22.6267 13.9681C21.3038 15.3911 19.3787 16.2841 17.2507 16.8888C16.4131 17.1274 15.7468 16.9762 15.2012 16.2742C13.726 14.3739 11.4659 13.1587 8.93392 13.1587C7.31996 13.1587 5.81609 13.6529 4.55633 14.5022"  stroke="#f5822d" stroke-width="0.573609" stroke-linecap="round" stroke-linejoin="round"></path>
                                            <path d="M8.79053 16.6152L9.676 19.4569L12.1362 17.9113"  stroke="#f5822d" stroke-width="0.573609" stroke-linecap="round" stroke-linejoin="round"></path>
                                            <path d="M4.77979 19.1499L7.59128 19.7726L7.5329 16.7866"  stroke="#f5822d" stroke-width="0.573609" stroke-linecap="round" stroke-linejoin="round"></path>
                                            <path d="M9.018 26.3695L8.13157 23.5278L5.67139 25.0735"  stroke="#f5822d" stroke-width="0.573609" stroke-linecap="round" stroke-linejoin="round"></path>
                                            <path d="M13.0278 23.8209L10.2163 23.1982L10.2747 26.1842"  stroke="#f5822d" stroke-width="0.573609" stroke-linecap="round" stroke-linejoin="round"></path>
                                            <path d="M14.3963 21.216L13.9272 20.6928L4.05391 20.4153C3.66143 20.4044 3.33691 20.7316 3.33691 21.1394V21.9898C3.33691 22.3976 3.66143 22.7259 4.05391 22.7139L13.9272 22.4364L14.3283 22.0286"  stroke="#f5822d" stroke-width="0.573609" stroke-linecap="round" stroke-linejoin="round"></path>
                                            <path d="M14.397 21.6521H20.9763C21.8905 21.6521 22.4151 20.0716 22.7386 19.0799C22.9416 18.4592 23.2268 18.0822 23.4776 17.8555"  stroke="#f5822d" stroke-width="0.573609" stroke-linecap="round" stroke-linejoin="round"></path>
                                            <path d="M22.9181 24.8511H15.393C14.8943 24.8511 14.454 24.5368 14.3104 24.0792L14.1687 23.6277C14.0912 23.381 14.2836 23.1323 14.5526 23.1323H23.7596C24.0286 23.1323 24.221 23.381 24.1434 23.6277L24.0018 24.0792C23.8582 24.5378 23.4178 24.8511 22.9191 24.8511H22.9181Z"  stroke="#f5822d" stroke-width="0.573609" stroke-linecap="round" stroke-linejoin="round"></path>
                                            <path d="M24.0005 24.0784H30.7004C32.5738 24.0784 32.5738 21.4834 32.5738 21.4834"  stroke="#f5822d" stroke-width="0.573609" stroke-linecap="round" stroke-linejoin="round"></path>
                                            <path d="M30.6348 22.1389H31.0808L33.0662 20.9105V19.3062"  stroke="#f5822d" stroke-width="0.573609" stroke-linecap="round" stroke-linejoin="round"></path>
                                            <path d="M33.6268 18.8975L32.2866 19.6912"  stroke="#f5822d" stroke-width="0.573609" stroke-linecap="round" stroke-linejoin="round"></path>
                                            <path d="M27.4995 17.86C27.5397 18.2876 27.4009 18.7281 27.0879 19.0523C26.5614 19.5992 25.719 19.634 25.1533 19.1329L23.479 17.6522C23.2272 17.4294 23.2119 17.0297 23.4455 16.787L24.9053 15.2705C25.1399 15.0269 25.5237 15.0428 25.7381 15.3053L26.7778 16.5732"  stroke="#f5822d" stroke-width="0.573609" stroke-linecap="round" stroke-linejoin="round"></path>
                                            <path d="M23.9907 18.1167L26.1848 15.8369"  stroke="#f5822d" stroke-width="0.573609" stroke-linecap="round" stroke-linejoin="round"></path>
                                            <path d="M25.1538 19.1132L27.0368 17.1558"  stroke="#f5822d" stroke-width="0.573609" stroke-linecap="round" stroke-linejoin="round"></path>
                                            <path d="M28.7349 17.869C28.6976 18.2936 28.8364 18.7301 29.1475 19.0523C29.674 19.5992 30.5164 19.634 31.0822 19.1329L32.7564 17.6522C33.0082 17.4294 33.0235 17.0297 32.7899 16.787L31.3301 15.2705C31.0956 15.0269 30.7117 15.0428 30.4973 15.3053L29.5189 16.4986"  stroke="#f5822d" stroke-width="0.573609" stroke-linecap="round" stroke-linejoin="round"></path>
                                            <path d="M32.2453 18.1167L30.0513 15.8369"  stroke="#f5822d" stroke-width="0.573609" stroke-linecap="round" stroke-linejoin="round"></path>
                                            <path d="M31.0818 19.119L29.2305 17.1953"  stroke="#f5822d" stroke-width="0.573609" stroke-linecap="round" stroke-linejoin="round"></path>
                                            <path d="M29.6835 15.5554C29.6835 16.8253 28.1184 18.5636 28.1184 18.5636C28.1184 18.5636 26.5532 16.8263 26.5532 15.5554C26.5532 14.2846 27.254 13.9634 28.1184 13.9634C28.9828 13.9634 29.6835 14.2856 29.6835 15.5554Z"  stroke="#f5822d" stroke-width="0.573609" stroke-linecap="round" stroke-linejoin="round"></path>
                                            <path d="M28.0498 15.4541H28.1838"  stroke="#f5822d" stroke-width="0.573609" stroke-linecap="round" stroke-linejoin="round"></path>
                                            <path d="M28.1178 22.9757C29.1176 22.9757 29.928 22.1335 29.928 21.0947C29.928 20.056 29.1176 19.2139 28.1178 19.2139C27.1181 19.2139 26.3076 20.056 26.3076 21.0947C26.3076 22.1335 27.1181 22.9757 28.1178 22.9757Z"  stroke="#f5822d" stroke-width="0.573609" stroke-linecap="round" stroke-linejoin="round"></path>
                                            <path d="M26.5528 20.1377L24.1577 21.3611C23.6723 21.6088 23.6829 22.3329 24.1758 22.5647L26.8438 23.8199"  stroke="#f5822d" stroke-width="0.573609" stroke-linecap="round" stroke-linejoin="round"></path>
                                            <path d="M32.7754 19.2111L34.2027 14.2688L32.7754 12.9473"  stroke="#f5822d" stroke-width="0.573609" stroke-linecap="round" stroke-linejoin="round"></path>
                                            <path d="M4.42416 16.383L2.79105 16.5252C2.58332 15.8121 2.58332 15.0989 2.79105 14.3857L4.42416 14.528C4.88843 14.5688 5.24452 14.9716 5.24452 15.455C5.24452 15.9384 4.88748 16.3422 4.42416 16.382V16.383Z"  stroke="#f5822d" stroke-width="0.573609" stroke-linecap="round" stroke-linejoin="round"></path>
                                            <path d="M35.3695 11.6994L37.2104 11.8417C37.4449 11.1285 37.4449 10.4153 37.2104 9.70215L35.3695 9.8444C34.8469 9.88518 34.4438 10.288 34.4438 10.7714C34.4438 11.2548 34.8459 11.6586 35.3695 11.6984V11.6994Z"  stroke="#f5822d" stroke-width="0.573609" stroke-linecap="round" stroke-linejoin="round"></path>
                                            <path d="M6.46875 14.9779C9.51191 13.7962 12.9246 14.8735 14.4926 17.6824"  stroke="#f5822d" stroke-width="0.573609" stroke-linecap="round" stroke-linejoin="round"></path>
                                            <path d="M16.2924 16.9844C15.5563 17.4887 15.7793 19.1159 16.7586 19.85"  stroke="#f5822d" stroke-width="0.573609" stroke-linecap="round" stroke-linejoin="round"></path>
                                            <path d="M12.9092 14.2423C12.9092 14.2423 13.6157 11.6469 15.556 12.2038C17.4964 12.7597 17.0532 13.2817 19.3258 13.1276C22.0243 12.9446 22.636 13.5711 22.636 13.5711C22.636 13.5711 26.735 9.39952 29.8318 9.12208C32.4193 8.89038 33.0664 9.70182 32.9554 10.5819C32.8195 11.6658 32.9554 13.7561 30.924 13.594C26.6058 13.2489 22.9414 15.3193 22.9414 15.3193"  stroke="#f5822d" stroke-width="0.573609" stroke-linecap="round" stroke-linejoin="round"></path>
                                            <path d="M28.8803 9.30817L28.729 8.86157L30.5 8.60693L30.5229 9.0784"  stroke="#f5822d" stroke-width="0.573609" stroke-linecap="round" stroke-linejoin="round"></path>
                                            <path d="M15.0117 13.3828C15.0117 13.3828 15.7948 14.0025 16.3079 14.9753C16.821 15.949 18.9241 14.4491 19.9953 14.1477C21.0655 13.8463 22.6364 13.5678 22.6364 13.5678"  stroke="#f5822d" stroke-width="0.573609" stroke-linecap="round" stroke-linejoin="round"></path>
                                            <path d="M16.9165 19.8472L17.1625 21.4864"  stroke="#f5822d" stroke-width="0.573609" stroke-linecap="round" stroke-linejoin="round"></path>
                                            <path d="M18.3672 20.1377V21.4795"  stroke="#f5822d" stroke-width="0.573609" stroke-linecap="round" stroke-linejoin="round"></path>
                                            <path d="M20.1297 19.9268L19.7056 21.564"  stroke="#f5822d" stroke-width="0.573609" stroke-linecap="round" stroke-linejoin="round"></path>
                                            <path d="M21.5239 21.457L21.9135 23.14"  stroke="#f5822d" stroke-width="0.573609" stroke-linecap="round" stroke-linejoin="round"></path>
                                            <path d="M22.1724 20.5601L24.3473 21.2682"  stroke="#f5822d" stroke-width="0.573609" stroke-linecap="round" stroke-linejoin="round"></path>
                                            <path d="M35.3109 13.2496L34.7835 13.5987L32.9561 10.5859"  stroke="#f5822d" stroke-width="0.573609" stroke-linecap="round" stroke-linejoin="round"></path>
                                            <path d="M32.5518 9.16655L31.6816 7.30456L33.3999 5.96875L34.6482 7.19713"  stroke="#f5822d" stroke-width="0.573609" stroke-linecap="round" stroke-linejoin="round"></path>
                                            <path d="M32.5024 9.50206C32.5024 9.50206 33.6483 7.80915 35.358 7.1308C37.754 6.1809 38.2135 6.73692 38.2135 6.73692L37.2074 9.70595"  stroke="#f5822d" stroke-width="0.573609" stroke-linecap="round" stroke-linejoin="round"></path>
                                            <path d="M38.2144 6.97119C38.2144 6.97119 39.0874 7.72512 38.6193 9.31856C38.1512 10.912 37.5356 10.7787 37.5356 10.7787"  stroke="#f5822d" stroke-width="0.573609" stroke-linecap="round" stroke-linejoin="round"></path>
                                            <path d="M30.9687 5.46354C30.9687 5.8992 30.5514 6.04343 30.0095 6.04343C29.4677 6.04343 29.0054 5.8992 29.0054 5.46354C29.0054 5.02788 29.4448 4.67578 29.9866 4.67578C30.5284 4.67578 30.9678 5.02888 30.9678 5.46354H30.9687Z"  stroke="#f5822d" stroke-width="0.573609" stroke-linecap="round" stroke-linejoin="round"></path>
                                            <path d="M28.1776 3.01957C27.8981 3.42539 27.229 3.42639 26.6824 3.02057C26.1358 2.61475 25.9194 1.95728 26.199 1.55047C26.4785 1.14465 27.1476 1.14365 27.6942 1.54947C28.2408 1.95529 28.4571 2.61276 28.1776 3.01957Z"  stroke="#f5822d" stroke-width="0.573609" stroke-linecap="round" stroke-linejoin="round"></path>
                                            <path d="M28.3818 2.86816C29.2214 2.95271 29.5861 3.47191 29.7651 4.69931"  stroke="#f5822d" stroke-width="0.573609" stroke-linecap="round" stroke-linejoin="round"></path>
                                            <path d="M29.0292 5.62549L25.9727 6.85387"  stroke="#f5822d" stroke-width="0.573609" stroke-linecap="round" stroke-linejoin="round"></path>
                                            <path d="M29.831 6.20605C29.831 6.20605 30.8572 6.57707 28.9168 7.1102C26.9764 7.64334 27.5785 8.31571 27.5785 8.31571"  stroke="#f5822d" stroke-width="0.573609" stroke-linecap="round" stroke-linejoin="round"></path>
                                            <path d="M30.9692 5.4541L31.9954 5.77836L33.6257 8.24112"  stroke="#f5822d" stroke-width="0.573609" stroke-linecap="round" stroke-linejoin="round"></path>
                                            <path d="M30.8563 21.3379L30.4888 22.9721"  stroke="#f5822d" stroke-width="0.573609" stroke-linecap="round" stroke-linejoin="round"></path>
                                            <path d="M13.0283 18.8579L11.6221 20.6682"  stroke="#f5822d" stroke-width="0.573609" stroke-linecap="round" stroke-linejoin="round"></path>
                                            <path d="M4.68701 23.8921L5.59738 22.7104"  stroke="#f5822d" stroke-width="0.573609" stroke-linecap="round" stroke-linejoin="round"></path>
                                        </svg>